<svg width="60" height="60" viewBox="0 0 60 60" fill="none" xmlns="http://www.w3.org/2000/svg">
<path fill-rule="evenodd" clip-rule="evenodd" d="M59.7151 14.1706C59.7151 -0.139434 36.7013 0.336816 28.6388 0.336816C20.5688 0.336816 0.142578 0.509316 0.142578 14.8231H14.8013L14.8163 11.2343C14.8163 9.59182 16.6126 7.38307 20.6401 7.38307H39.4388C43.3613 7.38307 45.2026 9.59182 45.2026 11.2343C45.2026 11.8118 45.2326 14.7106 45.2326 14.8231H59.7076L59.7151 14.1706Z" fill="#FFD700"/>
<path fill-rule="evenodd" clip-rule="evenodd" d="M18.7013 35.0172C18.6904 35.6412 18.4324 36.2353 17.9838 36.6691C17.5352 37.103 16.9327 37.341 16.3088 37.331H13.695C13.3857 37.3364 13.0784 37.2809 12.7906 37.1676C12.5028 37.0542 12.2401 36.8853 12.0176 36.6705C11.7951 36.4556 11.6171 36.199 11.4937 35.9153C11.3704 35.6317 11.3041 35.3265 11.2988 35.0172V32.4822C11.2988 31.2035 12.3713 30.1685 13.695 30.1685H16.3088C17.6288 30.1685 18.7013 31.2035 18.7013 32.4822V35.0172Z" fill="#FFD700"/>
<path fill-rule="evenodd" clip-rule="evenodd" d="M48.6563 35.0429C48.6568 35.3575 48.5951 35.6692 48.4748 35.9599C48.3545 36.2506 48.178 36.5147 47.9553 36.7371C47.7326 36.9594 47.4682 37.1355 47.1773 37.2553C46.8864 37.3752 46.5747 37.4364 46.26 37.4354H43.65C43.3357 37.4359 43.0244 37.3743 42.7339 37.2543C42.4434 37.1342 42.1794 36.958 41.9572 36.7357C41.7349 36.5135 41.5587 36.2495 41.4386 35.959C41.3186 35.6685 41.257 35.3572 41.2575 35.0429V32.4291C41.2575 31.1054 42.3263 30.0366 43.65 30.0366H46.26C47.5875 30.0366 48.6563 31.1054 48.6563 32.4291V35.0429Z" fill="#FFD700"/>
<path fill-rule="evenodd" clip-rule="evenodd" d="M33.6975 35.0575C33.698 35.3718 33.6365 35.6832 33.5164 35.9737C33.3963 36.2642 33.2201 36.5281 32.9979 36.7504C32.7756 36.9726 32.5117 37.1488 32.2212 37.2689C31.9307 37.389 31.6193 37.4505 31.305 37.45H28.6875C28.3735 37.45 28.0626 37.3881 27.7725 37.2678C27.4825 37.1475 27.219 36.9713 26.9971 36.749C26.7752 36.5268 26.5994 36.2631 26.4795 35.9728C26.3597 35.6826 26.2983 35.3715 26.2988 35.0575V32.4438C26.2988 31.12 27.3675 30.0513 28.6875 30.0513H31.305C32.6288 30.0513 33.6975 31.12 33.6975 32.4438V35.0575Z" fill="#FFD700"/>
<path fill-rule="evenodd" clip-rule="evenodd" d="M18.6075 46.26C18.61 46.5717 18.551 46.8809 18.434 47.1698C18.317 47.4588 18.1442 47.7218 17.9255 47.944C17.7068 48.1662 17.4465 48.3431 17.1595 48.4647C16.8724 48.5862 16.5642 48.65 16.2525 48.6525H13.68C13.3679 48.6505 13.0594 48.5871 12.7719 48.4657C12.4844 48.3444 12.2236 48.1675 12.0045 47.9453C11.7855 47.7231 11.6123 47.4599 11.4951 47.1707C11.3778 46.8815 11.3188 46.572 11.3212 46.26V43.6463C11.3212 42.3187 12.375 41.25 13.68 41.25H16.2525C17.5537 41.25 18.6075 42.3187 18.6075 43.6463V46.26Z" fill="#FFD700"/>
<path fill-rule="evenodd" clip-rule="evenodd" d="M48.5362 46.2965C48.5397 46.6032 48.4825 46.9077 48.368 47.1923C48.2534 47.4769 48.0838 47.736 47.8688 47.9548C47.6538 48.1737 47.3977 48.3479 47.1152 48.4674C46.8326 48.587 46.5293 48.6495 46.2225 48.6515H43.6875C43.3807 48.6495 43.0774 48.587 42.7948 48.4674C42.5123 48.3479 42.2562 48.1737 42.0412 47.9548C41.8262 47.736 41.6565 47.4769 41.542 47.1923C41.4275 46.9077 41.3703 46.6032 41.3737 46.2965V43.724C41.3737 42.4152 42.405 41.3652 43.6875 41.3652H46.2225C47.505 41.3652 48.5362 42.4152 48.5362 43.724V46.2965Z" fill="#FFD700"/>
<path fill-rule="evenodd" clip-rule="evenodd" d="M33.6825 46.2965C33.6811 46.6082 33.618 46.9165 33.497 47.2038C33.3761 47.491 33.1995 47.7516 32.9776 47.9704C32.7556 48.1892 32.4926 48.362 32.2036 48.4789C31.9147 48.5958 31.6055 48.6545 31.2938 48.6515H28.68C28.3682 48.6545 28.0588 48.5958 27.7696 48.479C27.4805 48.3622 27.2172 48.1894 26.9949 47.9706C26.7727 47.7518 26.5958 47.4913 26.4744 47.2041C26.353 46.9168 26.2895 46.6084 26.2875 46.2965V43.724C26.2875 42.4152 27.3563 41.3652 28.68 41.3652H31.2938C32.6175 41.3652 33.6825 42.4152 33.6825 43.724V46.2965Z" fill="#FFD700"/>
<path fill-rule="evenodd" clip-rule="evenodd" d="M18.7239 57.5499C18.719 57.8592 18.6533 58.1645 18.5304 58.4483C18.4075 58.7322 18.2299 58.9891 18.0077 59.2043C17.7855 59.4195 17.5232 59.5888 17.2355 59.7026C16.9479 59.8164 16.6407 59.8724 16.3314 59.8674H13.7177C13.4081 59.8729 13.1005 59.8172 12.8124 59.7037C12.5243 59.5901 12.2615 59.4209 12.0389 59.2056C11.8164 58.9904 11.6384 58.7333 11.5153 58.4492C11.3922 58.1651 11.3263 57.8595 11.3214 57.5499V55.0149C11.3214 53.7362 12.3939 52.7012 13.7177 52.7012H16.3314C17.6514 52.7012 18.7239 53.7362 18.7239 55.0149V57.5499Z" fill="#FFD700"/>
<path fill-rule="evenodd" clip-rule="evenodd" d="M48.6563 57.5883C48.6568 57.9031 48.5951 58.2149 48.4749 58.5059C48.3546 58.7968 48.1781 59.0612 47.9555 59.2838C47.7329 59.5064 47.4686 59.6829 47.1776 59.8031C46.8867 59.9234 46.5748 59.985 46.26 59.9845H43.65C43.3354 59.985 43.0237 59.9234 42.733 59.8031C42.4423 59.6828 42.1781 59.5062 41.9558 59.2836C41.7335 59.0609 41.5574 58.7965 41.4376 58.5056C41.3177 58.2147 41.2565 57.9029 41.2575 57.5883V54.9745C41.2575 53.6508 42.3263 52.582 43.65 52.582H46.26C47.5875 52.582 48.6563 53.6508 48.6563 54.9745V57.5883Z" fill="#FFD700"/>
<path fill-rule="evenodd" clip-rule="evenodd" d="M33.6827 57.5883C33.6866 57.9003 33.6288 58.21 33.5126 58.4996C33.3964 58.7891 33.2241 59.0529 33.0056 59.2756C32.787 59.4983 32.5266 59.6756 32.2393 59.7973C31.952 59.9189 31.6434 59.9826 31.3314 59.9845H28.7589C28.4469 59.9826 28.1383 59.9189 27.851 59.7973C27.5637 59.6756 27.3033 59.4983 27.0847 59.2756C26.8662 59.0529 26.6939 58.7891 26.5777 58.4996C26.4615 58.21 26.4037 57.9003 26.4077 57.5883V54.9745C26.4077 53.6508 27.4539 52.582 28.7589 52.582H31.3314C32.6364 52.582 33.6827 53.6508 33.6827 54.9745V57.5883Z" fill="#FFD700"/>
<path fill-rule="evenodd" clip-rule="evenodd" d="M3.72003 22.3988H11.3963C11.3963 22.3988 14.0475 23.2538 14.7225 18.75H0.251282C0.877532 22.9238 3.72003 22.3988 3.72003 22.3988Z" fill="#FFD700"/>
<path fill-rule="evenodd" clip-rule="evenodd" d="M45.4314 18.75C46.2151 22.6987 49.0426 22.3987 49.0426 22.3987H56.1339C56.1339 22.3987 58.9764 22.44 59.6701 18.75H45.4314Z" fill="#FFD700"/>
</svg>
